# xmcd CD database file
#
# Track frame offsets:
#	150
#	20747
#	39332
#	57551
#	81050
#	104823
#	124230
#	140300
#	157406
#	175552
#	190575
#	217083
#	236885
#
# Disc length: 3385 seconds
#
# Revision: 0
# Processed by: cddbd v1.5PL3 Copyright (c) Steve Scherf et al.
# Submitted via: CDex 1.51
#
DISCID=bf0d370d
DTITLE=Roger Smith - Just Enough
DYEAR=2004
DGENRE=Jazz
TTITLE0=Rough Cut
TTITLE1=Just Enough
TTITLE2=Vega
TTITLE3=I'll Always Love You
TTITLE4=Workin' It
TTITLE5=Sunset Dreams
TTITLE6=Hali' Imaile
TTITLE7=Friday
TTITLE8=Tunisia
TTITLE9=Perfect Circle
TTITLE10=Just Another Day
TTITLE11=Roger's Groove
TTITLE12=Friday (remix)
EXTD=YEAR: 2004
EXTT0=
EXTT1=
EXTT2=
EXTT3=
EXTT4=
EXTT5=
EXTT6=
EXTT7=
EXTT8=
EXTT9=
EXTT10=
EXTT11=
EXTT12=
PLAYORDER=
